<?xml version="1.0" encoding="UTF-8" standalone="no"?>
<svg
   xmlns:dc="http://purl.org/dc/elements/1.1/"
   xmlns:cc="http://creativecommons.org/ns#"
   xmlns:rdf="http://www.w3.org/1999/02/22-rdf-syntax-ns#"
   xmlns:svg="http://www.w3.org/2000/svg"
   xmlns="http://www.w3.org/2000/svg"
   id="svg8"
   version="1.1"
   viewBox="0 0 26.458333 26.458334"
   height="100"
   width="100">
  <defs
     id="defs2" />
  <metadata
     id="metadata5">
    <rdf:RDF>
      <cc:Work
         rdf:about="">
        <dc:format>image/svg+xml</dc:format>
        <dc:type
           rdf:resource="http://purl.org/dc/dcmitype/StillImage" />
        <dc:title />
      </cc:Work>
    </rdf:RDF>
  </metadata>
  <g
     transform="translate(0,-270.54165)"
     id="layer1">
    <rect
       style="fill:#1f2f48;fill-opacity:1;fill-rule:nonzero;stroke-width:0.58196408;stroke-linecap:butt;stroke-linejoin:round;stroke-miterlimit:4;stroke-dasharray:none;paint-order:markers stroke fill"
       id="rect4770"
       width="26.458334"
       height="26.458334"
       x="4.1866151e-08"
       y="270.54166" />
    <g
       transform="matrix(0.13008784,0,0,0.13008784,4.7650874,275.47628)"
       id="g4774">
      <path
         d="M 110.07055,23.091213 C 104.07211,11.925291 100.69637,5.6541978 93.464489,-3.4732942 86.24559,-12.600786 77.702361,-21.741262 68.14641,-13.574559 c -4.829911,4.115811 -3.375744,10.6595608 0.220721,17.1643598 -0.61023,-0.402493 0.558296,2.804464 -0.01298,2.376004 -10.841332,-8.270573 -13.152418,-7.361718 -16.891703,-4.401451 -8.880803,7.024144 6.43988,21.3840392 11.438578,29.0833322 0.85692,1.32433 3.985974,2.557775 4.726041,3.778236 0.506362,0.830953 0.986756,1.635938 1.441183,2.414956 C 68.509951,36.67209 67.938672,36.503303 67.354408,36.334516 62.109022,34.867366 50.060213,33.283363 44.581121,35.34776 10.589977,48.175587 12.303816,53.771531 14.913526,61.120266 c 2.60971,7.348735 12.139694,12.775892 27.72005,3.090104 19.228757,-7.945982 35.198622,2.700595 35.198622,13.762648 0,15.190846 -4.972731,23.773032 -18.021279,23.773032 -20.630988,0 -21.734597,-16.826786 -32.757699,-27.849892 -2.973251,-2.973251 -10.114248,-3.843154 -14.333928,-0.792001 -9.8415911,7.128013 -3.4796127,21.916367 -1.025707,26.863129 5.141518,10.347964 11.47753,25.357034 28.161494,38.885984 8.776934,7.11503 30.550482,6.0244 43.144604,3.45364 23.941807,-4.88184 28.758737,-20.78679 36.445047,-48.013466 2.89535,-10.24409 3.28486,-18.488692 3.28486,-29.92727 0,-11.438579 -7.07608,-30.875073 -12.65904,-41.274961 z"
         style="fill:#337df4;fill-opacity:1;stroke-width:1.29836297"
         id="path4753" />
      <path
         d="M 109.60314,59.198689 C 108.07107,52.654939 95.541869,42.423839 90.32245,39.048095 89.790121,36.191696 82.090828,19.390879 77.105114,12.756243 74.339601,9.0688928 69.224051,4.0831788 67.419326,1.7980598 c 0,0 0.441444,1.804724 -0.843936,2.843415 0.493378,0.597247 7.984933,10.0363462 11.101004,17.0475062 3.116071,7.01116 5.699814,14.5936 5.699814,14.5936 -3.388728,-1.129575 -16.787834,-5.621911 -20.488169,-5.634895 0,0 1.298363,1.168527 1.272396,3.323809 -0.02597,2.012463 -2.817448,0.947805 -1.272396,1.402232 9.893527,2.869383 23.708109,6.297061 32.225371,14.450781 3.36276,3.232924 8.33549,9.374181 10.67254,13.41209 1.68787,2.882366 4.23266,-2.259152 3.81719,-4.037909 z"
         style="fill:#1f2f48;fill-opacity:1;stroke-width:1.29836297"
         id="path4755" />
    </g>
  </g>
</svg>
